<?xml version="1.0" standalone="no"?>
<!DOCTYPE svg PUBLIC "-//W3C//DTD SVG 20010904//EN"
 "http://www.w3.org/TR/2001/REC-SVG-20010904/DTD/svg10.dtd">
<svg version="1.0" xmlns="http://www.w3.org/2000/svg"
 width="29.000000pt" height="33.000000pt" viewBox="0 0 29.000000 33.000000"
 preserveAspectRatio="xMidYMid meet">

<g transform="translate(0.000000,33.000000) scale(0.100000,-0.100000)"
fill="#000000" stroke="none">
<path d="M101 225 c-27 -27 -39 -45 -32 -49 14 -9 101 61 101 80 0 23 -23 13
-69 -31z"/>
<path d="M143 192 c-59 -53 -44 -72 18 -21 26 23 46 46 43 50 -8 14 -17 10
-61 -29z"/>
<path d="M177 158 c-36 -31 -45 -44 -37 -53 9 -10 21 -4 56 30 40 40 55 66 37
65 -5 -1 -29 -19 -56 -42z"/>
</g>
</svg>
